REM DIRINDEX 1\2,1\3,1\4,1\5,1\6
REM DIRNAME "folder01","folder02","folder03","folder04","folder05","folder06"
TITLE ""
FILE "Disc6Track28.mp3" MP3
  TRACK 01 AUDIO
    TITLE "3:cjc161_11427"
    INDEX 01 00:00:00
  TRACK 02 AUDIO
    TITLE "4:cjc161_11428"
    INDEX 01 00:01:16
  TRACK 03 AUDIO
    TITLE "5:cjc161_11429"
    INDEX 01 00:02:21
  TRACK 04 AUDIO
    TITLE "6:cjc161_11430"
    INDEX 01 00:03:48
  TRACK 05 AUDIO
    TITLE "0:"
    INDEX 01 00:09:31
  TRACK 06 AUDIO
    TITLE "3:cjc161_11431"
    INDEX 01 00:09:62
  TRACK 07 AUDIO
    TITLE "4:cjc161_11432"
    INDEX 01 00:10:75
  TRACK 08 AUDIO
    TITLE "5:cjc161_11433"
    INDEX 01 00:12:66
  TRACK 09 AUDIO
    TITLE "6:cjc161_11434"
    INDEX 01 00:14:03
  TRACK 10 AUDIO
    TITLE "0:"
    INDEX 01 00:15:61
  TRACK 11 AUDIO
    TITLE "3:cjc161_11435"
    INDEX 01 00:16:17
  TRACK 12 AUDIO
    TITLE "4:cjc161_11436"
    INDEX 01 00:17:36
  TRACK 13 AUDIO
    TITLE "5:cjc161_11437"
    INDEX 01 00:19:04
  TRACK 14 AUDIO
    TITLE "6:cjc161_11438"
    INDEX 01 00:20:23
  TRACK 15 AUDIO
    TITLE "0:"
    INDEX 01 00:22:12
  TRACK 16 AUDIO
    TITLE "3:cjc161_11439"
    INDEX 01 00:22:43
  TRACK 17 AUDIO
    TITLE "4:cjc161_11440"
    INDEX 01 00:23:49
  TRACK 18 AUDIO
    TITLE "5:cjc161_11441"
    INDEX 01 00:25:04
  TRACK 19 AUDIO
    TITLE "6:cjc161_11442"
    INDEX 01 00:26:10
  TRACK 20 AUDIO
    TITLE "0:"
    INDEX 01 00:29:06
  TRACK 21 AUDIO
    TITLE "3:cjc161_11443"
    INDEX 01 00:29:35
  TRACK 22 AUDIO
    TITLE "4:cjc161_11444"
    INDEX 01 00:30:66
  TRACK 23 AUDIO
    TITLE "5:cjc161_11445"
    INDEX 01 00:32:01
  TRACK 24 AUDIO
    TITLE "0:"
    INDEX 01 00:33:31
  TRACK 25 AUDIO
    TITLE "3:cjc161_11446"
    INDEX 01 00:33:65
  TRACK 26 AUDIO
    TITLE "4:cjc161_11447"
    INDEX 01 00:35:11
  TRACK 27 AUDIO
    TITLE "5:cjc161_11448"
    INDEX 01 00:36:12
  TRACK 28 AUDIO
    TITLE "6:cjc161_11449"
    INDEX 01 00:37:33
  TRACK 29 AUDIO
    TITLE "0:"
    INDEX 01 00:40:43
  TRACK 30 AUDIO
    TITLE "3:cjc161_11450"
    INDEX 01 00:40:74
  TRACK 31 AUDIO
    TITLE "4:cjc161_11451"
    INDEX 01 00:42:36
  TRACK 32 AUDIO
    TITLE "5:cjc161_11452"
    INDEX 01 00:44:35
  TRACK 33 AUDIO
    TITLE "6:cjc161_11453"
    INDEX 01 00:45:72
  TRACK 34 AUDIO
    TITLE "0:"
    INDEX 01 00:48:58
  TRACK 35 AUDIO
    TITLE "3:cjc161_11454"
    INDEX 01 00:49:15
  TRACK 36 AUDIO
    TITLE "4:cjc161_11455"
    INDEX 01 00:50:36
  TRACK 37 AUDIO
    TITLE "5:cjc161_11456"
    INDEX 01 00:52:25
  TRACK 38 AUDIO
    TITLE "6:cjc161_11457"
    INDEX 01 00:53:46
  TRACK 39 AUDIO
    TITLE "0:"
    INDEX 01 00:55:43
  TRACK 40 AUDIO
    TITLE "3:cjc161_11458"
    INDEX 01 00:55:74
  TRACK 41 AUDIO
    TITLE "4:cjc161_11459"
    INDEX 01 00:57:04
  TRACK 42 AUDIO
    TITLE "5:cjc161_11460"
    INDEX 01 00:58:63
  TRACK 43 AUDIO
    TITLE "6:cjc161_11461"
    INDEX 01 00:59:66
  TRACK 44 AUDIO
    TITLE "0:"
    INDEX 01 01:03:60
  TRACK 45 AUDIO
    TITLE "3:cjc161_11462"
    INDEX 01 01:04:12
  TRACK 46 AUDIO
    TITLE "4:cjc161_11463"
    INDEX 01 01:05:29
  TRACK 47 AUDIO
    TITLE "5:cjc161_11464"
    INDEX 01 01:06:13
  TRACK 48 AUDIO
    TITLE "6:cjc161_11465"
    INDEX 01 01:07:28
  TRACK 49 AUDIO
    TITLE "0:"
    INDEX 01 01:09:62
  TRACK 50 AUDIO
    TITLE "3:cjc161_11466"
    INDEX 01 01:10:23
  TRACK 51 AUDIO
    TITLE "4:cjc161_11467"
    INDEX 01 01:11:38
  TRACK 52 AUDIO
    TITLE "5:cjc161_11468"
    INDEX 01 01:12:24
  TRACK 53 AUDIO
    TITLE "6:cjc161_11469"
    INDEX 01 01:13:35
  TRACK 54 AUDIO
    TITLE "0:"
    INDEX 01 01:15:65
  TRACK 55 AUDIO
    TITLE "3:cjc161_11470"
    INDEX 01 01:16:21
  TRACK 56 AUDIO
    TITLE "4:cjc161_11471"
    INDEX 01 01:17:36
  TRACK 57 AUDIO
    TITLE "5:cjc161_11472"
    INDEX 01 01:18:20
  TRACK 58 AUDIO
    TITLE "6:cjc161_11473"
    INDEX 01 01:19:39
  TRACK 59 AUDIO
    TITLE "0:"
    INDEX 01 01:21:36
